<svg xmlns="http://www.w3.org/2000/svg" version="1.1" width="400" height="400" viewBox="0 0 400 400"><rect x="0" y="0" width="400" height="400" fill="#000000"/><g transform="scale(19.048)"><g transform="translate(0,0)"><path fill-rule="evenodd" d="M9 0L9 1L8 1L8 3L9 3L9 4L8 4L8 8L6 8L6 9L8 9L8 8L9 8L9 11L8 11L8 10L6 10L6 11L8 11L8 15L9 15L9 13L10 13L10 14L12 14L12 13L13 13L13 12L12 12L12 11L14 11L14 10L15 10L15 9L17 9L17 12L16 12L16 13L15 13L15 12L14 12L14 13L15 13L15 16L14 16L14 14L13 14L13 15L10 15L10 16L9 16L9 17L8 17L8 18L9 18L9 19L8 19L8 21L13 21L13 20L15 20L15 19L13 19L13 18L12 18L12 16L14 16L14 17L17 17L17 18L16 18L16 21L19 21L19 20L20 20L20 19L21 19L21 16L18 16L18 15L19 15L19 13L21 13L21 12L19 12L19 13L17 13L17 12L18 12L18 9L20 9L20 11L21 11L21 9L20 9L20 8L18 8L18 9L17 9L17 8L14 8L14 10L12 10L12 11L11 11L11 12L10 12L10 9L11 9L11 8L13 8L13 4L12 4L12 3L13 3L13 2L12 2L12 1L13 1L13 0L11 0L11 2L12 2L12 3L11 3L11 4L12 4L12 5L11 5L11 6L10 6L10 7L9 7L9 4L10 4L10 0ZM11 6L11 7L12 7L12 6ZM0 8L0 9L1 9L1 10L3 10L3 11L0 11L0 12L3 12L3 13L5 13L5 9L4 9L4 8L3 8L3 9L2 9L2 8ZM6 12L6 13L7 13L7 12ZM11 12L11 13L12 13L12 12ZM16 14L16 15L17 15L17 14ZM20 14L20 15L21 15L21 14ZM10 16L10 17L9 17L9 18L10 18L10 19L9 19L9 20L13 20L13 19L12 19L12 18L11 18L11 16ZM17 16L17 17L18 17L18 16ZM17 18L17 20L18 20L18 19L20 19L20 18ZM0 0L0 7L7 7L7 0ZM1 1L1 6L6 6L6 1ZM2 2L2 5L5 5L5 2ZM14 0L14 7L21 7L21 0ZM15 1L15 6L20 6L20 1ZM16 2L16 5L19 5L19 2ZM0 14L0 21L7 21L7 14ZM1 15L1 20L6 20L6 15ZM2 16L2 19L5 19L5 16Z" fill="#ffffff"/></g></g></svg>