<svg xmlns="http://www.w3.org/2000/svg" version="1.1" width="400" height="400" viewBox="0 0 400 400"><rect x="0" y="0" width="400" height="400" fill="#000000"/><g transform="scale(19.048)"><g transform="translate(0,0)"><path fill-rule="evenodd" d="M12 0L12 2L11 2L11 1L10 1L10 4L9 4L9 3L8 3L8 5L9 5L9 6L8 6L8 7L9 7L9 6L10 6L10 7L11 7L11 6L12 6L12 7L13 7L13 6L12 6L12 5L13 5L13 0ZM11 3L11 4L10 4L10 6L11 6L11 5L12 5L12 3ZM0 8L0 10L1 10L1 9L2 9L2 8ZM5 8L5 9L8 9L8 10L4 10L4 9L3 9L3 10L2 10L2 11L0 11L0 12L1 12L1 13L2 13L2 11L5 11L5 12L4 12L4 13L5 13L5 12L6 12L6 13L7 13L7 12L6 12L6 11L8 11L8 10L10 10L10 11L11 11L11 13L12 13L12 14L11 14L11 15L10 15L10 12L9 12L9 13L8 13L8 16L9 16L9 19L8 19L8 21L9 21L9 20L10 20L10 21L11 21L11 20L12 20L12 21L13 21L13 20L15 20L15 21L16 21L16 19L17 19L17 20L18 20L18 21L19 21L19 20L20 20L20 19L21 19L21 18L19 18L19 20L18 20L18 17L19 17L19 16L21 16L21 14L20 14L20 15L19 15L19 13L20 13L20 12L21 12L21 10L20 10L20 12L19 12L19 11L18 11L18 12L16 12L16 10L17 10L17 9L18 9L18 10L19 10L19 9L18 9L18 8L16 8L16 9L15 9L15 10L14 10L14 9L12 9L12 8L11 8L11 9L8 9L8 8ZM11 10L11 11L12 11L12 10ZM13 10L13 11L14 11L14 10ZM18 12L18 13L19 13L19 12ZM13 13L13 14L12 14L12 15L11 15L11 16L10 16L10 15L9 15L9 16L10 16L10 19L11 19L11 16L12 16L12 17L13 17L13 16L14 16L14 17L16 17L16 18L17 18L17 17L18 17L18 14L17 14L17 13ZM13 14L13 15L14 15L14 16L15 16L15 15L14 15L14 14ZM16 14L16 15L17 15L17 14ZM16 16L16 17L17 17L17 16ZM14 18L14 19L15 19L15 18ZM0 0L0 7L7 7L7 0ZM1 1L1 6L6 6L6 1ZM2 2L2 5L5 5L5 2ZM14 0L14 7L21 7L21 0ZM15 1L15 6L20 6L20 1ZM16 2L16 5L19 5L19 2ZM0 14L0 21L7 21L7 14ZM1 15L1 20L6 20L6 15ZM2 16L2 19L5 19L5 16Z" fill="#ffffff"/></g></g></svg>