<svg xmlns="http://www.w3.org/2000/svg" version="1.1" width="400" height="400" viewBox="0 0 400 400"><rect x="0" y="0" width="400" height="400" fill="#000000"/><g transform="scale(19.048)"><g transform="translate(0,0)"><path fill-rule="evenodd" d="M10 0L10 1L8 1L8 2L10 2L10 3L8 3L8 4L9 4L9 5L8 5L8 7L9 7L9 8L6 8L6 9L7 9L7 10L5 10L5 12L4 12L4 11L3 11L3 9L5 9L5 8L0 8L0 10L1 10L1 12L0 12L0 13L1 13L1 12L2 12L2 13L5 13L5 12L6 12L6 13L7 13L7 12L8 12L8 11L9 11L9 13L8 13L8 15L10 15L10 16L8 16L8 21L9 21L9 18L10 18L10 19L11 19L11 20L10 20L10 21L11 21L11 20L12 20L12 21L13 21L13 20L15 20L15 21L16 21L16 20L15 20L15 19L16 19L16 18L15 18L15 17L14 17L14 16L13 16L13 17L12 17L12 16L11 16L11 15L12 15L12 14L13 14L13 15L14 15L14 14L13 14L13 12L15 12L15 14L16 14L16 15L15 15L15 16L16 16L16 17L17 17L17 18L18 18L18 17L19 17L19 16L20 16L20 15L21 15L21 14L20 14L20 13L18 13L18 12L17 12L17 13L18 13L18 17L17 17L17 14L16 14L16 12L15 12L15 11L16 11L16 10L15 10L15 9L16 9L16 8L15 8L15 9L14 9L14 8L13 8L13 9L12 9L12 8L11 8L11 10L10 10L10 9L9 9L9 8L10 8L10 7L11 7L11 6L12 6L12 7L13 7L13 6L12 6L12 5L13 5L13 0ZM11 1L11 2L12 2L12 1ZM10 3L10 5L9 5L9 7L10 7L10 6L11 6L11 5L12 5L12 3ZM17 8L17 9L18 9L18 10L17 10L17 11L18 11L18 10L19 10L19 12L21 12L21 11L20 11L20 8L19 8L19 9L18 9L18 8ZM1 9L1 10L2 10L2 9ZM8 9L8 10L7 10L7 11L6 11L6 12L7 12L7 11L8 11L8 10L9 10L9 9ZM11 10L11 11L10 11L10 12L11 12L11 14L12 14L12 12L11 12L11 11L12 11L12 10ZM13 10L13 11L14 11L14 10ZM2 11L2 12L3 12L3 11ZM19 14L19 15L20 15L20 14ZM10 16L10 18L11 18L11 19L12 19L12 18L11 18L11 16ZM13 18L13 19L14 19L14 18ZM17 19L17 20L18 20L18 21L19 21L19 20L20 20L20 19L19 19L19 20L18 20L18 19ZM0 0L0 7L7 7L7 0ZM1 1L1 6L6 6L6 1ZM2 2L2 5L5 5L5 2ZM14 0L14 7L21 7L21 0ZM15 1L15 6L20 6L20 1ZM16 2L16 5L19 5L19 2ZM0 14L0 21L7 21L7 14ZM1 15L1 20L6 20L6 15ZM2 16L2 19L5 19L5 16Z" fill="#ffffff"/></g></g></svg>