<svg xmlns="http://www.w3.org/2000/svg" version="1.1" width="400" height="400" viewBox="0 0 400 400"><rect x="0" y="0" width="400" height="400" fill="#000000"/><g transform="scale(19.048)"><g transform="translate(0,0)"><path fill-rule="evenodd" d="M8 0L8 4L12 4L12 5L11 5L11 6L10 6L10 5L8 5L8 7L9 7L9 9L8 9L8 10L9 10L9 9L10 9L10 12L9 12L9 11L8 11L8 12L6 12L6 11L7 11L7 10L6 10L6 11L5 11L5 9L7 9L7 8L4 8L4 9L2 9L2 8L0 8L0 10L1 10L1 11L2 11L2 13L3 13L3 11L4 11L4 12L6 12L6 13L8 13L8 14L9 14L9 13L11 13L11 11L12 11L12 10L13 10L13 9L12 9L12 8L13 8L13 6L12 6L12 5L13 5L13 4L12 4L12 3L9 3L9 1L10 1L10 2L11 2L11 1L12 1L12 2L13 2L13 0ZM9 6L9 7L10 7L10 6ZM11 6L11 7L12 7L12 6ZM10 8L10 9L11 9L11 8ZM15 8L15 10L14 10L14 11L13 11L13 12L12 12L12 15L10 15L10 16L11 16L11 18L10 18L10 17L9 17L9 15L8 15L8 17L9 17L9 18L10 18L10 19L8 19L8 21L10 21L10 19L12 19L12 18L13 18L13 17L12 17L12 16L13 16L13 15L14 15L14 14L15 14L15 11L16 11L16 12L17 12L17 16L16 16L16 15L15 15L15 16L14 16L14 17L15 17L15 18L14 18L14 19L13 19L13 20L12 20L12 21L15 21L15 19L16 19L16 20L17 20L17 19L18 19L18 21L21 21L21 20L20 20L20 19L19 19L19 18L21 18L21 16L20 16L20 15L21 15L21 13L20 13L20 9L21 9L21 8L17 8L17 9L18 9L18 10L16 10L16 8ZM18 10L18 11L17 11L17 12L18 12L18 11L19 11L19 10ZM0 12L0 13L1 13L1 12ZM8 12L8 13L9 13L9 12ZM19 13L19 14L18 14L18 16L17 16L17 17L16 17L16 18L17 18L17 17L18 17L18 18L19 18L19 17L18 17L18 16L19 16L19 15L20 15L20 13ZM0 0L0 7L7 7L7 0ZM1 1L1 6L6 6L6 1ZM2 2L2 5L5 5L5 2ZM14 0L14 7L21 7L21 0ZM15 1L15 6L20 6L20 1ZM16 2L16 5L19 5L19 2ZM0 14L0 21L7 21L7 14ZM1 15L1 20L6 20L6 15ZM2 16L2 19L5 19L5 16Z" fill="#ffffff"/></g></g></svg>