<svg xmlns="http://www.w3.org/2000/svg" version="1.1" width="400" height="400" viewBox="0 0 400 400"><rect x="0" y="0" width="400" height="400" fill="#000000"/><g transform="scale(19.048)"><g transform="translate(0,0)"><path fill-rule="evenodd" d="M12 0L12 2L11 2L11 1L10 1L10 4L9 4L9 3L8 3L8 5L9 5L9 6L8 6L8 7L9 7L9 6L10 6L10 7L11 7L11 6L12 6L12 7L13 7L13 6L12 6L12 5L13 5L13 0ZM11 3L11 4L10 4L10 6L11 6L11 5L12 5L12 3ZM0 8L0 9L1 9L1 10L0 10L0 11L1 11L1 10L2 10L2 11L3 11L3 12L1 12L1 13L3 13L3 12L4 12L4 13L5 13L5 12L6 12L6 13L7 13L7 12L8 12L8 11L7 11L7 10L6 10L6 9L8 9L8 10L9 10L9 12L10 12L10 13L8 13L8 16L10 16L10 18L9 18L9 19L8 19L8 21L9 21L9 19L10 19L10 21L11 21L11 20L12 20L12 21L13 21L13 20L15 20L15 21L16 21L16 19L17 19L17 20L18 20L18 21L19 21L19 20L20 20L20 19L21 19L21 18L19 18L19 20L18 20L18 17L19 17L19 16L21 16L21 14L20 14L20 12L21 12L21 10L20 10L20 11L19 11L19 10L18 10L18 8L16 8L16 9L15 9L15 10L14 10L14 9L12 9L12 8L11 8L11 10L12 10L12 11L11 11L11 12L10 12L10 9L8 9L8 8L5 8L5 10L3 10L3 9L2 9L2 8ZM5 10L5 11L4 11L4 12L5 12L5 11L6 11L6 12L7 12L7 11L6 11L6 10ZM13 10L13 11L14 11L14 10ZM16 10L16 12L17 12L17 11L18 11L18 12L19 12L19 11L18 11L18 10ZM10 13L10 15L11 15L11 16L12 16L12 17L13 17L13 16L14 16L14 17L16 17L16 18L17 18L17 17L18 17L18 14L19 14L19 15L20 15L20 14L19 14L19 13L18 13L18 14L17 14L17 13L13 13L13 14L12 14L12 13ZM11 14L11 15L12 15L12 14ZM13 14L13 15L14 15L14 16L15 16L15 15L14 15L14 14ZM16 14L16 15L17 15L17 14ZM16 16L16 17L17 17L17 16ZM10 18L10 19L11 19L11 18ZM14 18L14 19L15 19L15 18ZM0 0L0 7L7 7L7 0ZM1 1L1 6L6 6L6 1ZM2 2L2 5L5 5L5 2ZM14 0L14 7L21 7L21 0ZM15 1L15 6L20 6L20 1ZM16 2L16 5L19 5L19 2ZM0 14L0 21L7 21L7 14ZM1 15L1 20L6 20L6 15ZM2 16L2 19L5 19L5 16Z" fill="#ffffff"/></g></g></svg>