<svg xmlns="http://www.w3.org/2000/svg" version="1.1" width="900" height="900" viewBox="0 0 900 900"><rect x="0" y="0" width="900" height="900" fill="#000000"/><g transform="scale(42.857)"><g transform="translate(0,0)"><path fill-rule="evenodd" d="M8 0L8 1L9 1L9 0ZM10 0L10 2L8 2L8 5L9 5L9 6L8 6L8 7L9 7L9 6L10 6L10 7L11 7L11 8L8 8L8 9L7 9L7 8L6 8L6 9L7 9L7 10L6 10L6 11L4 11L4 10L5 10L5 9L4 9L4 8L0 8L0 9L1 9L1 10L0 10L0 12L1 12L1 13L3 13L3 12L6 12L6 13L8 13L8 14L9 14L9 12L12 12L12 13L10 13L10 15L13 15L13 14L12 14L12 13L13 13L13 12L12 12L12 10L15 10L15 9L14 9L14 8L13 8L13 5L12 5L12 4L13 4L13 3L12 3L12 1L13 1L13 0ZM10 2L10 4L9 4L9 5L11 5L11 4L12 4L12 3L11 3L11 2ZM11 6L11 7L12 7L12 6ZM16 8L16 9L17 9L17 11L14 11L14 12L15 12L15 13L14 13L14 14L15 14L15 16L12 16L12 17L11 17L11 16L9 16L9 17L8 17L8 21L11 21L11 20L9 20L9 19L10 19L10 17L11 17L11 18L12 18L12 19L13 19L13 21L14 21L14 19L15 19L15 20L16 20L16 21L17 21L17 20L16 20L16 18L20 18L20 17L21 17L21 16L20 16L20 15L21 15L21 14L19 14L19 13L21 13L21 11L20 11L20 12L17 12L17 11L18 11L18 9L19 9L19 10L21 10L21 8L20 8L20 9L19 9L19 8ZM2 9L2 10L4 10L4 9ZM7 10L7 11L6 11L6 12L8 12L8 11L11 11L11 10ZM2 11L2 12L3 12L3 11ZM16 12L16 13L15 13L15 14L16 14L16 15L17 15L17 16L18 16L18 17L20 17L20 16L18 16L18 15L19 15L19 14L17 14L17 12ZM12 17L12 18L13 18L13 19L14 19L14 17ZM18 19L18 20L19 20L19 21L20 21L20 20L21 20L21 19ZM0 0L0 7L7 7L7 0ZM1 1L1 6L6 6L6 1ZM2 2L2 5L5 5L5 2ZM14 0L14 7L21 7L21 0ZM15 1L15 6L20 6L20 1ZM16 2L16 5L19 5L19 2ZM0 14L0 21L7 21L7 14ZM1 15L1 20L6 20L6 15ZM2 16L2 19L5 19L5 16Z" fill="#ffffff"/></g></g></svg>