<svg xmlns="http://www.w3.org/2000/svg" version="1.1" width="400" height="400" viewBox="0 0 400 400"><rect x="0" y="0" width="400" height="400" fill="#000000"/><g transform="scale(19.048)"><g transform="translate(0,0)"><path fill-rule="evenodd" d="M8 0L8 1L9 1L9 0ZM10 0L10 2L8 2L8 5L9 5L9 6L8 6L8 7L9 7L9 6L10 6L10 7L11 7L11 8L8 8L8 9L9 9L9 10L8 10L8 11L9 11L9 13L8 13L8 14L10 14L10 11L9 11L9 10L10 10L10 9L11 9L11 12L12 12L12 13L11 13L11 15L10 15L10 16L9 16L9 17L8 17L8 21L10 21L10 20L9 20L9 17L10 17L10 18L12 18L12 19L13 19L13 21L14 21L14 19L15 19L15 20L16 20L16 21L17 21L17 20L16 20L16 18L20 18L20 17L21 17L21 16L20 16L20 15L21 15L21 14L20 14L20 13L19 13L19 15L18 15L18 16L17 16L17 15L16 15L16 14L15 14L15 13L16 13L16 12L17 12L17 11L18 11L18 12L19 12L19 11L18 11L18 9L19 9L19 10L20 10L20 9L21 9L21 8L20 8L20 9L19 9L19 8L16 8L16 9L17 9L17 11L14 11L14 12L15 12L15 13L14 13L14 14L15 14L15 16L12 16L12 17L10 17L10 16L11 16L11 15L13 15L13 14L12 14L12 13L13 13L13 12L12 12L12 10L15 10L15 9L14 9L14 8L13 8L13 5L12 5L12 4L13 4L13 3L12 3L12 1L13 1L13 0ZM10 2L10 4L9 4L9 5L11 5L11 4L12 4L12 3L11 3L11 2ZM11 6L11 7L12 7L12 6ZM0 8L0 9L1 9L1 10L0 10L0 11L2 11L2 13L3 13L3 12L4 12L4 13L5 13L5 12L6 12L6 13L7 13L7 12L6 12L6 11L7 11L7 10L6 10L6 11L2 11L2 9L4 9L4 10L5 10L5 9L4 9L4 8ZM6 8L6 9L7 9L7 8ZM20 11L20 12L21 12L21 11ZM0 12L0 13L1 13L1 12ZM17 13L17 14L18 14L18 13ZM18 16L18 17L20 17L20 16ZM12 17L12 18L13 18L13 19L14 19L14 17ZM18 19L18 20L19 20L19 21L20 21L20 20L21 20L21 19ZM0 0L0 7L7 7L7 0ZM1 1L1 6L6 6L6 1ZM2 2L2 5L5 5L5 2ZM14 0L14 7L21 7L21 0ZM15 1L15 6L20 6L20 1ZM16 2L16 5L19 5L19 2ZM0 14L0 21L7 21L7 14ZM1 15L1 20L6 20L6 15ZM2 16L2 19L5 19L5 16Z" fill="#ffffff"/></g></g></svg>