<svg xmlns="http://www.w3.org/2000/svg" version="1.1" width="400" height="400" viewBox="0 0 400 400"><rect x="0" y="0" width="400" height="400" fill="#9932cc"/><g transform="scale(16)"><g transform="translate(0,0)"><path fill-rule="evenodd" d="M9 0L9 1L8 1L8 2L9 2L9 3L8 3L8 4L10 4L10 7L11 7L11 4L12 4L12 5L13 5L13 4L14 4L14 7L15 7L15 9L14 9L14 8L13 8L13 9L11 9L11 8L6 8L6 9L5 9L5 8L0 8L0 9L1 9L1 10L2 10L2 12L1 12L1 11L0 11L0 17L1 17L1 13L2 13L2 12L3 12L3 13L4 13L4 14L3 14L3 15L2 15L2 16L4 16L4 17L5 17L5 16L4 16L4 15L5 15L5 12L3 12L3 11L7 11L7 12L6 12L6 13L8 13L8 11L9 11L9 13L10 13L10 14L8 14L8 15L7 15L7 14L6 14L6 15L7 15L7 16L6 16L6 17L8 17L8 19L9 19L9 18L10 18L10 19L11 19L11 18L12 18L12 19L13 19L13 18L14 18L14 17L16 17L16 19L14 19L14 20L13 20L13 22L12 22L12 21L11 21L11 20L10 20L10 21L9 21L9 20L8 20L8 25L9 25L9 24L10 24L10 25L11 25L11 24L13 24L13 25L14 25L14 24L15 24L15 25L16 25L16 24L17 24L17 25L20 25L20 22L21 22L21 23L23 23L23 22L24 22L24 24L21 24L21 25L25 25L25 21L24 21L24 20L25 20L25 18L23 18L23 17L24 17L24 15L25 15L25 14L24 14L24 13L25 13L25 12L24 12L24 13L23 13L23 12L21 12L21 10L23 10L23 11L25 11L25 10L23 10L23 9L24 9L24 8L23 8L23 9L22 9L22 8L21 8L21 10L20 10L20 8L19 8L19 10L20 10L20 13L19 13L19 12L18 12L18 13L17 13L17 12L16 12L16 11L17 11L17 10L15 10L15 9L18 9L18 8L17 8L17 6L16 6L16 5L15 5L15 4L17 4L17 3L15 3L15 2L16 2L16 1L15 1L15 0L13 0L13 1L11 1L11 2L10 2L10 0ZM13 1L13 2L12 2L12 3L14 3L14 4L15 4L15 3L14 3L14 2L15 2L15 1ZM10 3L10 4L11 4L11 3ZM8 5L8 7L9 7L9 5ZM12 6L12 7L13 7L13 6ZM15 6L15 7L16 7L16 6ZM2 9L2 10L3 10L3 9ZM4 9L4 10L5 10L5 9ZM6 9L6 10L8 10L8 9ZM10 9L10 11L11 11L11 12L10 12L10 13L12 13L12 14L10 14L10 15L9 15L9 16L8 16L8 17L9 17L9 16L10 16L10 17L11 17L11 16L10 16L10 15L12 15L12 16L17 16L17 13L16 13L16 12L15 12L15 14L14 14L14 13L13 13L13 12L14 12L14 11L15 11L15 10L13 10L13 11L12 11L12 10L11 10L11 9ZM18 13L18 14L19 14L19 13ZM20 13L20 14L21 14L21 16L23 16L23 13ZM12 14L12 15L14 15L14 14ZM15 14L15 15L16 15L16 14ZM19 15L19 16L20 16L20 15ZM12 17L12 18L13 18L13 17ZM17 17L17 20L20 20L20 17ZM21 17L21 18L22 18L22 17ZM18 18L18 19L19 19L19 18ZM21 19L21 21L22 21L22 22L23 22L23 21L22 21L22 20L24 20L24 19ZM14 20L14 21L15 21L15 22L13 22L13 24L14 24L14 23L15 23L15 24L16 24L16 23L15 23L15 22L18 22L18 23L17 23L17 24L19 24L19 22L20 22L20 21L19 21L19 22L18 22L18 21L15 21L15 20ZM11 22L11 23L12 23L12 22ZM0 0L0 7L7 7L7 0ZM1 1L1 6L6 6L6 1ZM2 2L2 5L5 5L5 2ZM18 0L18 7L25 7L25 0ZM19 1L19 6L24 6L24 1ZM20 2L20 5L23 5L23 2ZM0 18L0 25L7 25L7 18ZM1 19L1 24L6 24L6 19ZM2 20L2 23L5 23L5 20Z" fill="#ffffff"/></g></g></svg>